<?xml version="1.0" encoding="UTF-8"?><svg id="Capa_1" xmlns="http://www.w3.org/2000/svg" viewBox="0 0 228.13 261.26"><defs><style>.cls-1,.cls-2{fill:#e30613;}.cls-2{stroke:#e30613;stroke-miterlimit:10;stroke-width:2px;}</style></defs><path class="cls-1" d="M120.69,37.11v-8.41l-7.52,4.32c2.97,1.7,5.94,3.4,8.91,5.11,7.13,4.09,14.26,8.18,21.39,12.27,8.67,4.97,17.34,9.94,26.01,14.91,7.46,4.28,14.93,8.56,22.39,12.84,3.62,2.07,7.19,4.33,10.9,6.25.05.03.1.06.16.09l-2.48-4.32c-.02,3.45-.04,6.91-.05,10.36-.04,8.3-.09,16.59-.13,24.89-.05,10.08-.1,20.16-.16,30.25-.04,8.68-.09,17.36-.13,26.04-.02,4.21-.16,8.44-.07,12.66,0,.06,0,.12,0,.18-.02,3.66,4.31,6.41,7.52,4.32,3.65-2.37,7.3-4.75,10.94-7.12l6.15-4c.35-.23.71-.44,1.05-.68,1.56-1.1,2.4-2.57,2.48-4.47.23-5.76-.04-11.57-.06-17.33-.04-11.41-.08-22.82-.13-34.24s-.08-23.09-.13-34.63c-.02-6.16.05-12.33-.07-18.49-.04-1.95-.82-3.64-2.55-4.72-.41-.25-.84-.48-1.26-.72l-6.48-3.72c-8.18-4.69-16.35-9.37-24.53-14.06-10.53-6.04-21.07-12.08-31.6-18.11l-28.65-16.43c-5.23-3-10.47-6-15.7-9l-.73-.42c-1.56-.89-3.49-.91-5.05,0-3.62,2.1-7.24,4.21-10.86,6.31l-26.05,15.15c-10.49,6.1-20.98,12.2-31.48,18.3-9.04,5.26-18.08,10.51-27.12,15.77-4.32,2.51-8.77,4.87-12.99,7.55C.06,65.38,0,67.52,0,70.01l.02,7.71c.03,9.47.06,18.94.09,28.41l.11,36.22c.03,10.91.07,21.81.1,32.72.02,5.97.04,11.94.05,17.91v.84c0,1.75.95,3.44,2.48,4.32,3.63,2.08,7.26,4.16,10.9,6.25,8.72,5,17.43,9.99,26.15,14.99l31.59,18.11,27.21,15.6c4.33,2.48,8.61,5.15,13.03,7.47,2.72,1.43,4.61.42,6.8-.85l6.67-3.88c8.19-4.76,16.37-9.52,24.56-14.28,10.44-6.07,20.87-12.14,31.31-18.21,9.43-5.48,18.86-10.96,28.29-16.45,5.16-3,10.32-6,15.48-9,.24-.14.48-.28.72-.42,2.26-1.32,3.25-4.57,1.79-6.84s-4.42-3.2-6.84-1.79c-3.62,2.1-7.24,4.21-10.86,6.31-8.62,5.01-17.23,10.02-25.85,15.03-10.49,6.1-20.98,12.2-31.47,18.3-9.04,5.25-18.07,10.51-27.11,15.76-4.38,2.54-8.9,4.94-13.17,7.66-.06.04-.12.07-.18.11h5.05c-3.63-2.08-7.26-4.16-10.9-6.25-8.65-4.96-17.29-9.91-25.94-14.87-10.53-6.04-21.06-12.07-31.58-18.11-9.07-5.2-18.14-10.4-27.2-15.6-4.39-2.52-8.72-5.24-13.22-7.58-.06-.03-.12-.07-.18-.11l2.48,4.32c-.01-4.19-.03-8.37-.04-12.56-.03-9.97-.06-19.93-.09-29.9-.04-12.13-.07-24.27-.11-36.4l-.1-31.36c-.02-5.06.17-10.17-.05-15.23,0-.07,0-.14,0-.21l-2.48,4.32c3.62-2.1,7.24-4.21,10.86-6.31l25.85-15.03c10.49-6.1,20.98-12.2,31.47-18.3,9.04-5.25,18.07-10.51,27.11-15.76,4.38-2.54,8.9-4.94,13.17-7.66.06-.04.12-.07.18-.11h-5.05c3.63,2.08,7.26,4.16,10.9,6.25,8.65,4.96,17.29,9.91,25.94,14.87,10.53,6.04,21.06,12.07,31.58,18.11l27.2,15.6c4.39,2.52,8.72,5.24,13.22,7.58.06.03.12.07.18.11l-2.48-4.32c.01,3.48.03,6.97.04,10.45.03,8.37.06,16.73.09,25.1.04,10.17.07,20.33.11,30.5l.1,26.16c.02,4.26-.16,8.57.05,12.83,0,.06,0,.12,0,.18l2.48-4.32c-5.28,3.44-10.56,6.87-15.84,10.31-.77.5-1.54,1-2.31,1.5l7.52,4.32c.02-3.45.04-6.91.05-10.36.04-8.3.09-16.59.13-24.89.05-10.08.1-20.16.16-30.25.04-8.68.09-17.36.13-26.04.02-4.21.16-8.44.07-12.66,0-.06,0-.12,0-.18,0-1.75-.96-3.45-2.48-4.32-2.97-1.7-5.94-3.4-8.91-5.11l-21.39-12.27c-8.67-4.97-17.34-9.94-26.01-14.91l-22.39-12.84c-3.63-2.08-7.22-4.26-10.9-6.25-.05-.03-.1-.06-.16-.09-3.28-1.88-7.52.5-7.52,4.32v8.41c0,2.62,2.3,5.12,5,5s5-2.2,5-5h0Z"/><path class="cls-1" d="M99.69,49.63v-8.93l-7.52,4.32c2.96,1.7,5.93,3.4,8.89,5.1l21.47,12.31c8.63,4.95,17.26,9.89,25.88,14.84,7.49,4.29,14.98,8.59,22.47,12.88,3.61,2.07,7.17,4.32,10.87,6.23.05.03.1.06.15.09l-2.48-4.32c-.02,3.49-.04,6.98-.05,10.47l-.13,25.14c-.05,10.14-.1,20.28-.16,30.42l-.13,26.32c-.02,4.27-.16,8.56-.07,12.82,0,.06,0,.12,0,.19-.01,2.62,2.31,5.12,5,5s4.99-2.2,5-5c.02-3.49.04-6.98.05-10.47l.13-25.14c.05-10.14.1-20.28.16-30.42l.13-26.32c.02-4.27.16-8.56.07-12.82,0-.06,0-.12,0-.19,0-1.75-.96-3.45-2.48-4.32-2.96-1.7-5.93-3.4-8.89-5.1-7.16-4.1-14.32-8.21-21.47-12.31-8.63-4.95-17.26-9.89-25.88-14.84-7.49-4.29-14.98-8.59-22.47-12.88-3.62-2.08-7.2-4.25-10.87-6.23-.05-.03-.1-.06-.15-.09-3.28-1.88-7.52.5-7.52,4.32v8.93c0,2.62,2.3,5.12,5,5s5-2.2,5-5h0Z"/><path class="cls-1" d="M78.69,63.33v-9.63l-7.52,4.32c2.96,1.7,5.93,3.4,8.89,5.1l21.47,12.31c8.63,4.95,17.26,9.89,25.88,14.84,7.49,4.29,14.98,8.59,22.47,12.88,3.61,2.07,7.17,4.32,10.87,6.23.05.03.1.06.15.09l-2.48-4.32c-.02,3.46-.04,6.93-.05,10.39l-.13,24.96c-.05,10.02-.1,20.04-.16,30.06l-.13,26.1c-.02,4.22-.16,8.46-.07,12.68,0,.06,0,.12,0,.18-.01,2.62,2.31,5.12,5,5s4.99-2.2,5-5c.02-3.46.04-6.93.05-10.39l.13-24.96c.05-10.02.1-20.04.16-30.06l.13-26.1c.02-4.22.16-8.46.07-12.68,0-.06,0-.12,0-.18,0-1.75-.96-3.45-2.48-4.32-2.96-1.7-5.93-3.4-8.89-5.1l-21.47-12.31c-8.63-4.95-17.26-9.89-25.88-14.84-7.49-4.29-14.98-8.59-22.47-12.88-3.62-2.08-7.2-4.25-10.87-6.23-.05-.03-.1-.06-.15-.09-3.28-1.88-7.52.5-7.52,4.32v9.63c0,2.62,2.3,5.12,5,5s5-2.2,5-5h0Z"/><path class="cls-2" d="M145.24,148.63l.22-24.77c.02-1.42-.74-2.74-1.98-3.45l-80.21-45.18c-1.25-.71-2.79-.69-4.01.06l-8.68,6.14c-1.17.72-1.89,1.99-1.89,3.37v25.19c.57-3.16,1.69-5.4,3.35-6.72,2.38-1.88,5.67-1.7,9.86.55l10.88,5.85-.36,17.11-8-4.31c-2.17-1.17-3.27-.76-3.31,1.23-.03,1.16.21,2.11.71,2.84.51.73,1.42,1.45,2.74,2.16l6.93,3.73-.28,13.36-8.21-4.43c-1.12-.6-1.92-.79-2.39-.57-.48.22-.73.88-.75,2-.03,1.26.19,2.22.65,2.87.47.65,1.44,1.38,2.91,2.17l8.47,4.57-.36,17.26-9.93-5.36c-4.66-2.52-8.19-6.04-10.58-10.54-1-1.88-1.77-3.89-2.33-6.04v29.46c0,1.44.78,2.77,2.05,3.46l87.74,48.09c2.73,1.5,6.08-.46,6.1-3.57l.51-59.25h0s-9.63-5.19-9.63-5.19l-.45,43.23-12.7-6.86.53-43.17-9.65-5.19.24-17.2,31.81,17.1ZM61.62,88.29c-.02.39-.41.64-.77.49l-4.4-1.77c-3.01-1.22-3.35-5.35-.57-7.03.65-.39,1.35-.57,2.03-.57,2.12,0,4.06,1.75,3.94,4.14l-.23,4.74ZM109.02,168.41c-.1,6.92-1.63,11.68-4.6,14.26-2.96,2.59-6.86,2.58-11.69-.03-4.8-2.59-8.44-6.6-10.91-12-2.46-5.39-3.62-11.84-3.47-19.35l.75-38.22,12.53,6.74-.67,38.24c-.06,3.68.83,6.02,2.67,7.02,1.79.96,2.71-.4,2.77-4.09l.64-38.26,12.55,6.74-.57,38.95Z"/></svg>